Sans_opsz17.ufo
<glyph name="dollar" format="2">
  <advance width="470"/>
  <unicode hex="0024"/>
  <outline>
    <contour>
      <point x="264" y="637" type="line"/>
      <point x="319" y="632"/>
      <point x="359" y="607"/>
      <point x="389" y="581" type="curve"/>
      <point x="400" y="643" type="line"/>
      <point x="400" y="647"/>
      <point x="348" y="694"/>
      <point x="264" y="701" type="curve"/>
      <point x="264" y="749" type="line"/>
      <point x="206" y="749" type="line"/>
      <point x="206" y="700" type="line"/>
      <point x="112" y="683"/>
      <point x="52" y="601"/>
      <point x="52" y="513" type="curve" smooth="yes"/>
      <point x="52" y="471"/>
      <point x="69" y="358"/>
      <point x="206" y="325" type="curve"/>
      <point x="206" y="58" type="line"/>
      <point x="149" y="64"/>
      <point x="95" y="88"/>
      <point x="54" y="128" type="curve"/>
      <point x="42" y="61" type="line"/>
      <point x="81" y="30"/>
      <point x="133" y="1"/>
      <point x="206" y="-7" type="curve"/>
      <point x="206" y="-55" type="line"/>
      <point x="264" y="-55" type="line"/>
      <point x="264" y="-5" type="line"/>
      <point x="364" y="15"/>
      <point x="417" y="107"/>
      <point x="417" y="195" type="curve" smooth="yes"/>
      <point x="417" y="275"/>
      <point x="373" y="373"/>
      <point x="264" y="396" type="curve"/>
    </contour>
    <contour>
      <point x="206" y="412" type="line"/>
      <point x="153" y="427"/>
      <point x="123" y="474"/>
      <point x="123" y="523" type="curve" smooth="yes"/>
      <point x="123" y="567"/>
      <point x="149" y="618"/>
      <point x="206" y="634" type="curve"/>
    </contour>
    <contour>
      <point x="264" y="309" type="line"/>
      <point x="324" y="290"/>
      <point x="346" y="230"/>
      <point x="346" y="185" type="curve" smooth="yes"/>
      <point x="346" y="140"/>
      <point x="324" y="80"/>
      <point x="264" y="61" type="curve"/>
    </contour>
  </outline>
</glyph>
<glyph name="percent" format="2">
  <advance width="783"/>
  <unicode hex="0025"/>
  <outline>
    <contour>
      <point x="184" y="-55" type="curve" smooth="yes"/>
      <point x="193" y="-55"/>
      <point x="195" y="-51"/>
      <point x="203" y="-37" type="curve" smooth="yes"/>
      <point x="613" y="715" type="line" smooth="yes"/>
      <point x="619" y="725"/>
      <point x="619" y="730"/>
      <point x="619" y="731" type="curve" smooth="yes"/>
      <point x="619" y="742"/>
      <point x="610" y="749"/>
      <point x="602" y="749" type="curve" smooth="yes"/>
      <point x="591" y="749"/>
      <point x="586" y="741"/>
      <point x="581" y="731" type="curve" smooth="yes"/>
      <point x="172" y="-21" type="line" smooth="yes"/>
      <point x="170" y="-25"/>
      <point x="166" y="-31"/>
      <point x="166" y="-37" type="curve" smooth="yes"/>
      <point x="166" y="-48"/>
      <point x="175" y="-55"/>
    </contour>
    <contour>
      <point x="183" y="408" type="curve" smooth="yes"/>
      <point x="162" y="408"/>
      <point x="128" y="427"/>
      <point x="128" y="548" type="curve" smooth="yes"/>
      <point x="128" y="668"/>
      <point x="162" y="688"/>
      <point x="183" y="688" type="curve" smooth="yes"/>
      <point x="220" y="688"/>
      <point x="240" y="615"/>
      <point x="240" y="548" type="curve" smooth="yes"/>
      <point x="240" y="481"/>
      <point x="220" y="408"/>
    </contour>
    <contour>
      <point x="183" y="347" type="curve" smooth="yes"/>
      <point x="252" y="347"/>
      <point x="313" y="432"/>
      <point x="313" y="548" type="curve" smooth="yes"/>
      <point x="313" y="664"/>
      <point x="251" y="749"/>
      <point x="183" y="749" type="curve" smooth="yes"/>
      <point x="116" y="749"/>
      <point x="52" y="666"/>
      <point x="52" y="548" type="curve" smooth="yes"/>
      <point x="52" y="430"/>
      <point x="116" y="347"/>
    </contour>
    <contour>
      <point x="601" y="6" type="curve" smooth="yes"/>
      <point x="580" y="6"/>
      <point x="546" y="25"/>
      <point x="546" y="146" type="curve" smooth="yes"/>
      <point x="546" y="266"/>
      <point x="580" y="286"/>
      <point x="601" y="286" type="curve" smooth="yes"/>
      <point x="638" y="286"/>
      <point x="658" y="213"/>
      <point x="658" y="146" type="curve" smooth="yes"/>
      <point x="658" y="79"/>
      <point x="638" y="6"/>
    </contour>
    <contour>
      <point x="601" y="-55" type="curve" smooth="yes"/>
      <point x="670" y="-55"/>
      <point x="731" y="30"/>
      <point x="731" y="146" type="curve" smooth="yes"/>
      <point x="731" y="262"/>
      <point x="669" y="347"/>
      <point x="601" y="347" type="curve" smooth="yes"/>
      <point x="534" y="347"/>
      <point x="470" y="264"/>
      <point x="470" y="146" type="curve" smooth="yes"/>
      <point x="470" y="28"/>
      <point x="534" y="-55"/>
    </contour>
  </outline>
</glyph>
<glyph name="asterisk" format="2">
  <advance width="470"/>
  <unicode hex="002A"/>
  <outline>
    <contour>
      <point x="260" y="488" type="line"/>
      <point x="352" y="421" type="line" smooth="yes"/>
      <point x="364" y="412"/>
      <point x="367" y="410"/>
      <point x="376" y="410" type="curve" smooth="yes"/>
      <point x="392" y="410"/>
      <point x="410" y="425"/>
      <point x="410" y="445" type="curve" smooth="yes"/>
      <point x="410" y="464"/>
      <point x="396" y="472"/>
      <point x="388" y="476" type="curve" smooth="yes"/>
      <point x="281" y="534" type="line"/>
      <point x="389" y="592" type="line" smooth="yes"/>
      <point x="401" y="599"/>
      <point x="410" y="609"/>
      <point x="410" y="623" type="curve" smooth="yes"/>
      <point x="410" y="643"/>
      <point x="392" y="658"/>
      <point x="376" y="658" type="curve" smooth="yes"/>
      <point x="367" y="658"/>
      <point x="360" y="654"/>
      <point x="352" y="648" type="curve" smooth="yes"/>
      <point x="260" y="580" type="line"/>
      <point x="268" y="715" type="line"/>
      <point x="268" y="738"/>
      <point x="251" y="749"/>
      <point x="234" y="749" type="curve" smooth="yes"/>
      <point x="220" y="749"/>
      <point x="201" y="739"/>
      <point x="201" y="715" type="curve"/>
      <point x="209" y="580" type="line"/>
      <point x="117" y="647" type="line" smooth="yes"/>
      <point x="105" y="656"/>
      <point x="102" y="658"/>
      <point x="93" y="658" type="curve" smooth="yes"/>
      <point x="77" y="658"/>
      <point x="59" y="643"/>
      <point x="59" y="623" type="curve" smooth="yes"/>
      <point x="59" y="604"/>
      <point x="73" y="596"/>
      <point x="81" y="592" type="curve" smooth="yes"/>
      <point x="188" y="534" type="line"/>
      <point x="80" y="476" type="line" smooth="yes"/>
      <point x="68" y="469"/>
      <point x="59" y="459"/>
      <point x="59" y="445" type="curve" smooth="yes"/>
      <point x="59" y="425"/>
      <point x="77" y="410"/>
      <point x="93" y="410" type="curve" smooth="yes"/>
      <point x="102" y="410"/>
      <point x="109" y="414"/>
      <point x="117" y="420" type="curve" smooth="yes"/>
      <point x="209" y="488" type="line"/>
      <point x="201" y="353" type="line"/>
      <point x="201" y="330"/>
      <point x="218" y="319"/>
      <point x="235" y="319" type="curve" smooth="yes"/>
      <point x="249" y="319"/>
      <point x="268" y="329"/>
      <point x="268" y="353" type="curve"/>
      <point x="267" y="362" type="line"/>
    </contour>
  </outline>
</glyph>
<glyph name="hyphen" format="2">
  <advance width="313"/>
  <unicode hex="002D"/>
  <outline>
    <contour>
      <point x="260" y="186" type="line"/>
      <point x="260" y="244" type="line"/>
      <point x="10" y="244" type="line"/>
      <point x="10" y="186" type="line"/>
    </contour>
  </outline>
</glyph>
<glyph name="slash" format="2">
  <advance width="470"/>
  <unicode hex="002F"/>
  <outline>
    <contour>
      <point x="412" y="714" type="line" smooth="yes"/>
      <point x="417" y="727"/>
      <point x="417" y="729"/>
      <point x="417" y="731" type="curve" smooth="yes"/>
      <point x="417" y="743"/>
      <point x="408" y="749"/>
      <point x="400" y="749" type="curve" smooth="yes"/>
      <point x="388" y="749"/>
      <point x="384" y="741"/>
      <point x="380" y="729" type="curve" smooth="yes"/>
      <point x="57" y="-214" type="line" smooth="yes"/>
      <point x="52" y="-227"/>
      <point x="52" y="-229"/>
      <point x="52" y="-231" type="curve" smooth="yes"/>
      <point x="52" y="-243"/>
      <point x="61" y="-249"/>
      <point x="69" y="-249" type="curve" smooth="yes"/>
      <point x="81" y="-249"/>
      <point x="85" y="-241"/>
      <point x="89" y="-229" type="curve" smooth="yes"/>
    </contour>
  </outline>
</glyph>
<glyph name="one" format="2">
  <advance width="470"/>
  <unicode hex="0031"/>
  <outline>
    <contour>
      <point x="284" y="672" type="line"/>
      <point x="265" y="672" type="line"/>
      <point x="211" y="616"/>
      <point x="148" y="608"/>
      <point x="84" y="606" type="curve"/>
      <point x="84" y="548" type="line"/>
      <point x="113" y="549"/>
      <point x="160" y="551"/>
      <point x="207" y="572" type="curve"/>
      <point x="207" y="58" type="line"/>
      <point x="89" y="58" type="line"/>
      <point x="89" y="0" type="line"/>
      <point x="402" y="0" type="line"/>
      <point x="402" y="58" type="line"/>
      <point x="284" y="58" type="line"/>
    </contour>
  </outline>
</glyph>
<glyph name="two" format="2">
  <advance width="470"/>
  <unicode hex="0032"/>
  <outline>
    <contour>
      <point x="258" y="212" type="line" smooth="yes"/>
      <point x="286" y="241"/>
      <point x="328" y="276"/>
      <point x="357" y="311" type="curve" smooth="yes"/>
      <point x="385" y="345"/>
      <point x="422" y="393"/>
      <point x="422" y="463" type="curve" smooth="yes"/>
      <point x="422" y="573"/>
      <point x="348" y="672"/>
      <point x="222" y="672" type="curve" smooth="yes"/>
      <point x="123" y="672"/>
      <point x="66" y="610"/>
      <point x="39" y="513" type="curve"/>
      <point x="78" y="459" type="line"/>
      <point x="100" y="550"/>
      <point x="131" y="608"/>
      <point x="209" y="608" type="curve" smooth="yes"/>
      <point x="295" y="608"/>
      <point x="343" y="538"/>
      <point x="343" y="461" type="curve" smooth="yes"/>
      <point x="343" y="369"/>
      <point x="273" y="298"/>
      <point x="220" y="245" type="curve" smooth="yes"/>
      <point x="161" y="186"/>
      <point x="103" y="126"/>
      <point x="47" y="64" type="curve"/>
      <point x="47" y="0" type="line"/>
      <point x="422" y="0" type="line"/>
      <point x="422" y="68" type="line"/>
      <point x="252" y="68" type="line" smooth="yes"/>
      <point x="240" y="68"/>
      <point x="228" y="67"/>
      <point x="216" y="67" type="curve" smooth="yes"/>
      <point x="116" y="67" type="line"/>
      <point x="116" y="68" type="line"/>
    </contour>
  </outline>
</glyph>
<glyph name="four" format="2">
  <advance width="470"/>
  <unicode hex="0034"/>
  <outline>
    <contour>
      <point x="352" y="171" type="line"/>
      <point x="443" y="171" type="line"/>
      <point x="443" y="232" type="line"/>
      <point x="352" y="232" type="line"/>
      <point x="352" y="656" type="line"/>
      <point x="264" y="656" type="line"/>
      <point x="26" y="232" type="line"/>
      <point x="26" y="171" type="line"/>
      <point x="273" y="171" type="line"/>
      <point x="273" y="0" type="line"/>
      <point x="352" y="0" type="line"/>
    </contour>
    <contour>
      <point x="103" y="232" type="line"/>
      <point x="161" y="334"/>
      <point x="276" y="540"/>
      <point x="276" y="610" type="curve"/>
      <point x="276" y="232" type="line"/>
    </contour>
  </outline>
</glyph>
<glyph name="eight" format="2">
  <advance width="470"/>
  <unicode hex="0038"/>
  <outline>
    <contour>
      <point x="302" y="355" type="curve"/>
      <point x="378" y="380"/>
      <point x="417" y="440"/>
      <point x="417" y="499" type="curve" smooth="yes"/>
      <point x="417" y="592"/>
      <point x="337" y="672"/>
      <point x="235" y="672" type="curve" smooth="yes"/>
      <point x="129" y="672"/>
      <point x="52" y="589"/>
      <point x="52" y="499" type="curve" smooth="yes"/>
      <point x="52" y="441"/>
      <point x="90" y="381"/>
      <point x="167" y="355" type="curve"/>
      <point x="69" y="317"/>
      <point x="39" y="241"/>
      <point x="39" y="184" type="curve" smooth="yes"/>
      <point x="39" y="74"/>
      <point x="128" y="-16"/>
      <point x="234" y="-16" type="curve" smooth="yes"/>
      <point x="344" y="-16"/>
      <point x="430" y="76"/>
      <point x="430" y="184" type="curve" smooth="yes"/>
      <point x="430" y="250"/>
      <point x="391" y="320"/>
    </contour>
    <contour>
      <point x="235" y="385" type="curve" smooth="yes"/>
      <point x="168" y="385"/>
      <point x="123" y="430"/>
      <point x="123" y="498" type="curve" smooth="yes"/>
      <point x="123" y="567"/>
      <point x="168" y="611"/>
      <point x="235" y="611" type="curve" smooth="yes"/>
      <point x="297" y="611"/>
      <point x="346" y="571"/>
      <point x="346" y="498" type="curve" smooth="yes"/>
      <point x="346" y="426"/>
      <point x="298" y="385"/>
    </contour>
    <contour>
      <point x="235" y="46" type="curve" smooth="yes"/>
      <point x="178" y="46"/>
      <point x="117" y="85"/>
      <point x="117" y="185" type="curve" smooth="yes"/>
      <point x="117" y="288"/>
      <point x="185" y="324"/>
      <point x="234" y="324" type="curve" smooth="yes"/>
      <point x="288" y="324"/>
      <point x="352" y="286"/>
      <point x="352" y="185" type="curve" smooth="yes"/>
      <point x="352" y="81"/>
      <point x="286" y="46"/>
    </contour>
  </outline>
</glyph>
<glyph name="A" format="2">
  <advance width="624"/>
  <unicode hex="0041"/>
  <outline>
    <contour>
      <point x="355" y="694" type="line"/>
      <point x="269" y="694" type="line"/>
      <point x="26" y="0" type="line"/>
      <point x="102" y="0" type="line"/>
      <point x="172" y="202" type="line"/>
      <point x="440" y="202" type="line"/>
      <point x="511" y="0" type="line"/>
      <point x="598" y="0" type="line"/>
    </contour>
    <contour>
      <point x="421" y="258" type="line"/>
      <point x="191" y="258" type="line"/>
      <point x="239" y="398"/>
      <point x="299" y="572"/>
      <point x="306" y="617" type="curve"/>
      <point x="307" y="617" type="line"/>
      <point x="314" y="576"/>
      <point x="334" y="516"/>
      <point x="351" y="465" type="curve" smooth="yes"/>
    </contour>
  </outline>
</glyph>
<glyph name="B" format="2">
  <advance width="625"/>
  <unicode hex="0042"/>
  <outline>
    <contour>
      <point x="89" y="694" type="line"/>
      <point x="89" y="0" type="line"/>
      <point x="338" y="0" type="line" smooth="yes"/>
      <point x="474" y="0"/>
      <point x="573" y="90"/>
      <point x="573" y="188" type="curve" smooth="yes"/>
      <point x="573" y="264"/>
      <point x="508" y="341"/>
      <point x="391" y="363" type="curve"/>
      <point x="521" y="401"/>
      <point x="547" y="477"/>
      <point x="547" y="520" type="curve" smooth="yes"/>
      <point x="547" y="610"/>
      <point x="449" y="694"/>
      <point x="312" y="694" type="curve" smooth="yes"/>
    </contour>
    <contour>
      <point x="170" y="391" type="line"/>
      <point x="170" y="638" type="line"/>
      <point x="285" y="638" type="line" smooth="yes"/>
      <point x="388" y="638"/>
      <point x="469" y="585"/>
      <point x="469" y="519" type="curve" smooth="yes"/>
      <point x="469" y="459"/>
      <point x="405" y="391"/>
      <point x="276" y="391" type="curve" smooth="yes"/>
    </contour>
    <contour>
      <point x="170" y="56" type="line"/>
      <point x="170" y="330" type="line"/>
      <point x="303" y="330" type="line" smooth="yes"/>
      <point x="411" y="330"/>
      <point x="494" y="263"/>
      <point x="494" y="189" type="curve" smooth="yes"/>
      <point x="494" y="121"/>
      <point x="421" y="56"/>
      <point x="310" y="56" type="curve" smooth="yes"/>
    </contour>
  </outline>
</glyph>
<glyph name="D" format="2">
  <advance width="677"/>
  <unicode hex="0044"/>
  <outline>
    <contour>
      <point x="89" y="694" type="line"/>
      <point x="89" y="0" type="line"/>
      <point x="335" y="0" type="line" smooth="yes"/>
      <point x="499" y="0"/>
      <point x="625" y="154"/>
      <point x="625" y="341" type="curve" smooth="yes"/>
      <point x="625" y="534"/>
      <point x="499" y="694"/>
      <point x="335" y="694" type="curve" smooth="yes"/>
    </contour>
    <contour>
      <point x="171" y="56" type="line"/>
      <point x="171" y="638" type="line"/>
      <point x="313" y="638" type="line" smooth="yes"/>
      <point x="447" y="638"/>
      <point x="543" y="515"/>
      <point x="543" y="341" type="curve" smooth="yes"/>
      <point x="543" y="174"/>
      <point x="448" y="56"/>
      <point x="313" y="56" type="curve" smooth="yes"/>
    </contour>
  </outline>
</glyph>
<glyph name="E" format="2">
  <advance width="561"/>
  <unicode hex="0045"/>
  <outline>
    <contour>
      <point x="88" y="0" type="line"/>
      <point x="521" y="0" type="line"/>
      <point x="521" y="69" type="line"/>
      <point x="172" y="69" type="line"/>
      <point x="172" y="329" type="line"/>
      <point x="482" y="329" type="line"/>
      <point x="482" y="390" type="line"/>
      <point x="172" y="390" type="line"/>
      <point x="172" y="627" type="line"/>
      <point x="508" y="627" type="line"/>
      <point x="508" y="692" type="line"/>
      <point x="88" y="692" type="line"/>
    </contour>
  </outline>
</glyph>
<glyph name="F" format="2">
  <advance width="534"/>
  <unicode hex="0046"/>
  <outline>
    <contour>
      <point x="456" y="316" type="line"/>
      <point x="456" y="377" type="line"/>
      <point x="172" y="377" type="line"/>
      <point x="172" y="628" type="line"/>
      <point x="294" y="628" type="line" smooth="yes"/>
      <point x="306" y="628"/>
      <point x="318" y="627"/>
      <point x="330" y="627" type="curve" smooth="yes"/>
      <point x="495" y="627" type="line"/>
      <point x="495" y="692" type="line"/>
      <point x="88" y="692" type="line"/>
      <point x="88" y="0" type="line"/>
      <point x="172" y="0" type="line"/>
      <point x="172" y="316" type="line"/>
    </contour>
  </outline>
</glyph>
<glyph name="H" format="2">
  <advance width="663"/>
  <unicode hex="0048"/>
  <outline>
    <contour>
      <point x="574" y="694" type="line"/>
      <point x="490" y="694" type="line"/>
      <point x="490" y="391" type="line"/>
      <point x="172" y="391" type="line"/>
      <point x="172" y="694" type="line"/>
      <point x="88" y="694" type="line"/>
      <point x="88" y="0" type="line"/>
      <point x="172" y="0" type="line"/>
      <point x="172" y="330" type="line"/>
      <point x="490" y="330" type="line"/>
      <point x="490" y="0" type="line"/>
      <point x="574" y="0" type="line"/>
    </contour>
  </outline>
</glyph>
<glyph name="J" format="2">
  <advance width="442"/>
  <unicode hex="004A"/>
  <outline>
    <contour>
      <point x="365" y="694" type="line"/>
      <point x="283" y="694" type="line"/>
      <point x="283" y="152" type="line" smooth="yes"/>
      <point x="283" y="104"/>
      <point x="263" y="45"/>
      <point x="173" y="45" type="curve" smooth="yes"/>
      <point x="122" y="45"/>
      <point x="79" y="69"/>
      <point x="52" y="99" type="curve"/>
      <point x="39" y="26" type="line"/>
      <point x="101" y="-7"/>
      <point x="158" y="-16"/>
      <point x="200" y="-16" type="curve" smooth="yes"/>
      <point x="297" y="-16"/>
      <point x="365" y="40"/>
      <point x="365" y="149" type="curve" smooth="yes"/>
    </contour>
  </outline>
</glyph>
<glyph name="K" format="2">
  <advance width="650"/>
  <unicode hex="004B"/>
  <outline>
    <contour>
      <point x="349" y="419" type="line"/>
      <point x="598" y="694" type="line"/>
      <point x="502" y="694" type="line"/>
      <point x="172" y="331" type="line"/>
      <point x="172" y="694" type="line"/>
      <point x="88" y="694" type="line"/>
      <point x="88" y="0" type="line"/>
      <point x="172" y="0" type="line"/>
      <point x="172" y="225" type="line"/>
      <point x="293" y="358" type="line"/>
      <point x="518" y="0" type="line"/>
      <point x="611" y="0" type="line"/>
    </contour>
  </outline>
</glyph>
<glyph name="L" format="2">
  <advance width="508"/>
  <unicode hex="004C"/>
  <outline>
    <contour>
      <point x="88" y="0" type="line"/>
      <point x="469" y="0" type="line"/>
      <point x="469" y="65" type="line"/>
      <point x="172" y="65" type="line"/>
      <point x="172" y="694" type="line"/>
      <point x="88" y="694" type="line"/>
    </contour>
  </outline>
</glyph>
<glyph name="S" format="2">
  <advance width="522"/>
  <unicode hex="0053"/>
  <outline>
    <contour>
      <point x="437" y="661" type="line"/>
      <point x="393" y="687"/>
      <point x="345" y="710"/>
      <point x="264" y="710" type="curve" smooth="yes"/>
      <point x="135" y="710"/>
      <point x="52" y="615"/>
      <point x="52" y="518" type="curve" smooth="yes"/>
      <point x="52" y="480"/>
      <point x="63" y="437"/>
      <point x="102" y="393" type="curve" smooth="yes"/>
      <point x="141" y="349"/>
      <point x="185" y="337"/>
      <point x="241" y="323" type="curve" smooth="yes"/>
      <point x="264" y="317"/>
      <point x="303" y="306"/>
      <point x="310" y="303" type="curve" smooth="yes"/>
      <point x="366" y="281"/>
      <point x="393" y="230"/>
      <point x="393" y="182" type="curve" smooth="yes"/>
      <point x="393" y="119"/>
      <point x="344" y="52"/>
      <point x="257" y="52" type="curve" smooth="yes"/>
      <point x="227" y="52"/>
      <point x="139" y="57"/>
      <point x="56" y="133" type="curve"/>
      <point x="42" y="54" type="line"/>
      <point x="124" y="-6"/>
      <point x="213" y="-16"/>
      <point x="258" y="-16" type="curve" smooth="yes"/>
      <point x="381" y="-16"/>
      <point x="469" y="81"/>
      <point x="469" y="191" type="curve" smooth="yes"/>
      <point x="469" y="231"/>
      <point x="457" y="282"/>
      <point x="415" y="329" type="curve" smooth="yes"/>
      <point x="374" y="374"/>
      <point x="338" y="384"/>
      <point x="256" y="406" type="curve" smooth="yes"/>
      <point x="209" y="418"/>
      <point x="179" y="426"/>
      <point x="154" y="457" type="curve" smooth="yes"/>
      <point x="137" y="479"/>
      <point x="128" y="500"/>
      <point x="128" y="527" type="curve" smooth="yes"/>
      <point x="128" y="583"/>
      <point x="176" y="644"/>
      <point x="264" y="644" type="curve" smooth="yes"/>
      <point x="308" y="644"/>
      <point x="365" y="635"/>
      <point x="423" y="581" type="curve"/>
    </contour>
  </outline>
</glyph>
<glyph name="V" format="2">
  <advance width="624"/>
  <unicode hex="0056"/>
  <outline>
    <contour>
      <point x="611" y="694" type="line"/>
      <point x="533" y="694" type="line"/>
      <point x="360" y="214" type="line" smooth="yes"/>
      <point x="355" y="200"/>
      <point x="324" y="108"/>
      <point x="318" y="76" type="curve"/>
      <point x="317" y="76" type="line"/>
      <point x="309" y="114"/>
      <point x="277" y="203"/>
      <point x="260" y="252" type="curve" smooth="yes"/>
      <point x="101" y="694" type="line"/>
      <point x="13" y="694" type="line"/>
      <point x="268" y="0" type="line"/>
      <point x="356" y="0" type="line"/>
    </contour>
  </outline>
</glyph>
<glyph name="X" format="2">
  <advance width="624"/>
  <unicode hex="0058"/>
  <outline>
    <contour>
      <point x="346" y="366" type="line"/>
      <point x="572" y="694" type="line"/>
      <point x="480" y="694" type="line"/>
      <point x="305" y="434" type="line"/>
      <point x="125" y="694" type="line"/>
      <point x="26" y="694" type="line"/>
      <point x="264" y="366" type="line"/>
      <point x="13" y="0" type="line"/>
      <point x="105" y="0" type="line"/>
      <point x="305" y="305" type="line"/>
      <point x="512" y="0" type="line"/>
      <point x="611" y="0" type="line"/>
    </contour>
  </outline>
</glyph>
<glyph name="Z" format="2">
  <advance width="574"/>
  <unicode hex="005A"/>
  <outline>
    <contour>
      <point x="522" y="653" type="line"/>
      <point x="522" y="694" type="line"/>
      <point x="65" y="694" type="line"/>
      <point x="65" y="631" type="line"/>
      <point x="252" y="631" type="line" smooth="yes"/>
      <point x="264" y="631"/>
      <point x="276" y="632"/>
      <point x="288" y="632" type="curve" smooth="yes"/>
      <point x="416" y="632" type="line"/>
      <point x="52" y="43" type="line"/>
      <point x="52" y="0" type="line"/>
      <point x="527" y="0" type="line"/>
      <point x="527" y="66" type="line"/>
      <point x="438" y="66" type="line" smooth="yes"/>
      <point x="355" y="66"/>
      <point x="271" y="64"/>
      <point x="188" y="64" type="curve" smooth="yes"/>
      <point x="158" y="64" type="line"/>
    </contour>
  </outline>
</glyph>
<glyph name="b" format="2">
  <advance width="483"/>
  <unicode hex="0062"/>
  <outline>
    <contour>
      <point x="149" y="694" type="line"/>
      <point x="75" y="694" type="line"/>
      <point x="75" y="0" type="line"/>
      <point x="151" y="0" type="line"/>
      <point x="151" y="45" type="line"/>
      <point x="189" y="8"/>
      <point x="235" y="-8"/>
      <point x="276" y="-8" type="curve" smooth="yes"/>
      <point x="372" y="-8"/>
      <point x="450" y="89"/>
      <point x="450" y="216" type="curve" smooth="yes"/>
      <point x="450" y="332"/>
      <point x="390" y="438"/>
      <point x="301" y="438" type="curve" smooth="yes"/>
      <point x="238" y="438"/>
      <point x="182" y="412"/>
      <point x="149" y="385" type="curve"/>
    </contour>
    <contour>
      <point x="151" y="326" type="line"/>
      <point x="173" y="354"/>
      <point x="204" y="377"/>
      <point x="248" y="377" type="curve" smooth="yes"/>
      <point x="307" y="377"/>
      <point x="374" y="334"/>
      <point x="374" y="216" type="curve" smooth="yes"/>
      <point x="374" y="90"/>
      <point x="294" y="53"/>
      <point x="239" y="53" type="curve" smooth="yes"/>
      <point x="219" y="53"/>
      <point x="198" y="58"/>
      <point x="178" y="75" type="curve" smooth="yes"/>
      <point x="151" y="99"/>
      <point x="151" y="114"/>
      <point x="151" y="128" type="curve" smooth="yes"/>
    </contour>
  </outline>
</glyph>
<glyph name="f" format="2">
  <advance width="287"/>
  <unicode hex="0066"/>
  <outline>
    <contour>
      <point x="168" y="372" type="line"/>
      <point x="269" y="372" type="line"/>
      <point x="269" y="430" type="line"/>
      <point x="166" y="430" type="line"/>
      <point x="166" y="558" type="line" smooth="yes"/>
      <point x="166" y="629"/>
      <point x="220" y="641"/>
      <point x="251" y="641" type="curve" smooth="yes"/>
      <point x="261" y="641"/>
      <point x="289" y="641"/>
      <point x="325" y="628" type="curve"/>
      <point x="325" y="694" type="line"/>
      <point x="302" y="699"/>
      <point x="274" y="702"/>
      <point x="252" y="702" type="curve" smooth="yes"/>
      <point x="159" y="702"/>
      <point x="94" y="626"/>
      <point x="94" y="527" type="curve" smooth="yes"/>
      <point x="94" y="430" type="line"/>
      <point x="25" y="430" type="line"/>
      <point x="25" y="372" type="line"/>
      <point x="94" y="372" type="line"/>
      <point x="94" y="0" type="line"/>
      <point x="168" y="0" type="line"/>
    </contour>
  </outline>
</glyph>
<glyph name="i" format="2">
  <advance width="222"/>
  <unicode hex="0069"/>
  <outline>
    <contour>
      <point x="153" y="658" type="line"/>
      <point x="69" y="658" type="line"/>
      <point x="69" y="574" type="line"/>
      <point x="153" y="574" type="line"/>
    </contour>
    <contour>
      <point x="148" y="430" type="line"/>
      <point x="74" y="430" type="line"/>
      <point x="74" y="0" type="line"/>
      <point x="148" y="0" type="line"/>
    </contour>
  </outline>
</glyph>
<glyph name="n" format="2">
  <advance width="483"/>
  <unicode hex="006E"/>
  <outline>
    <contour>
      <point x="409" y="292" type="line" smooth="yes"/>
      <point x="409" y="355"/>
      <point x="394" y="438"/>
      <point x="281" y="438" type="curve" smooth="yes"/>
      <point x="217" y="438"/>
      <point x="175" y="405"/>
      <point x="147" y="371" type="curve"/>
      <point x="147" y="433" type="line"/>
      <point x="74" y="433" type="line"/>
      <point x="74" y="0" type="line"/>
      <point x="150" y="0" type="line"/>
      <point x="150" y="242" type="line" smooth="yes"/>
      <point x="150" y="305"/>
      <point x="174" y="377"/>
      <point x="242" y="377" type="curve" smooth="yes"/>
      <point x="330" y="377"/>
      <point x="333" y="318"/>
      <point x="333" y="284" type="curve" smooth="yes"/>
      <point x="333" y="0" type="line"/>
      <point x="409" y="0" type="line"/>
    </contour>
  </outline>
</glyph>
<glyph name="s" format="2">
  <advance width="360"/>
  <unicode hex="0073"/>
  <outline>
    <contour>
      <point x="322" y="412" type="line"/>
      <point x="263" y="440"/>
      <point x="217" y="442"/>
      <point x="187" y="442" type="curve" smooth="yes"/>
      <point x="116" y="442"/>
      <point x="31" y="417"/>
      <point x="31" y="316" type="curve" smooth="yes"/>
      <point x="31" y="215"/>
      <point x="141" y="193"/>
      <point x="171" y="187" type="curve" smooth="yes"/>
      <point x="217" y="178"/>
      <point x="268" y="168"/>
      <point x="268" y="118" type="curve" smooth="yes"/>
      <point x="268" y="55"/>
      <point x="196" y="55"/>
      <point x="183" y="55" type="curve" smooth="yes"/>
      <point x="143" y="55"/>
      <point x="88" y="66"/>
      <point x="38" y="102" type="curve"/>
      <point x="26" y="35" type="line"/>
      <point x="83" y="2"/>
      <point x="138" y="-8"/>
      <point x="184" y="-8" type="curve" smooth="yes"/>
      <point x="307" y="-8"/>
      <point x="338" y="67"/>
      <point x="338" y="124" type="curve" smooth="yes"/>
      <point x="338" y="173"/>
      <point x="310" y="206"/>
      <point x="291" y="221" type="curve" smooth="yes"/>
      <point x="258" y="247"/>
      <point x="246" y="250"/>
      <point x="164" y="267" type="curve"/>
      <point x="150" y="269"/>
      <point x="101" y="280"/>
      <point x="101" y="325" type="curve" smooth="yes"/>
      <point x="101" y="382"/>
      <point x="164" y="382"/>
      <point x="178" y="382" type="curve" smooth="yes"/>
      <point x="243" y="382"/>
      <point x="283" y="362"/>
      <point x="310" y="347" type="curve"/>
    </contour>
  </outline>
</glyph>
<glyph name="t" format="2">
  <advance width="339"/>
  <unicode hex="0074"/>
  <outline>
    <contour>
      <point x="167" y="372" type="line"/>
      <point x="297" y="372" type="line"/>
      <point x="297" y="430" type="line"/>
      <point x="167" y="430" type="line"/>
      <point x="167" y="553" type="line"/>
      <point x="96" y="553" type="line"/>
      <point x="96" y="430" type="line"/>
      <point x="17" y="430" type="line"/>
      <point x="17" y="372" type="line"/>
      <point x="94" y="372" type="line"/>
      <point x="94" y="119" type="line" smooth="yes"/>
      <point x="94" y="62"/>
      <point x="107" y="-8"/>
      <point x="173" y="-8" type="curve" smooth="yes"/>
      <point x="223" y="-8"/>
      <point x="269" y="6"/>
      <point x="313" y="29" type="curve"/>
      <point x="297" y="88" type="line"/>
      <point x="273" y="67"/>
      <point x="244" y="55"/>
      <point x="213" y="55" type="curve" smooth="yes"/>
      <point x="169" y="55"/>
      <point x="167" y="111"/>
      <point x="167" y="136" type="curve" smooth="yes"/>
    </contour>
  </outline>
</glyph>
<glyph name="u" format="2">
  <advance width="483"/>
  <unicode hex="0075"/>
  <outline>
    <contour>
      <point x="409" y="430" type="line"/>
      <point x="333" y="430" type="line"/>
      <point x="333" y="154" type="line" smooth="yes"/>
      <point x="333" y="80"/>
      <point x="279" y="50"/>
      <point x="222" y="50" type="curve" smooth="yes"/>
      <point x="156" y="50"/>
      <point x="150" y="72"/>
      <point x="150" y="113" type="curve" smooth="yes"/>
      <point x="150" y="430" type="line"/>
      <point x="74" y="430" type="line"/>
      <point x="74" y="108" type="line" smooth="yes"/>
      <point x="74" y="30"/>
      <point x="101" y="-8"/>
      <point x="170" y="-8" type="curve" smooth="yes"/>
      <point x="204" y="-8"/>
      <point x="281" y="0"/>
      <point x="335" y="50" type="curve"/>
      <point x="335" y="0" type="line"/>
      <point x="409" y="0" type="line"/>
    </contour>
  </outline>
</glyph>
<glyph name="z" format="2">
  <advance width="408"/>
  <unicode hex="007A"/>
  <outline>
    <contour>
      <point x="375" y="391" type="line"/>
      <point x="375" y="430" type="line"/>
      <point x="39" y="430" type="line"/>
      <point x="39" y="370" type="line"/>
      <point x="167" y="370" type="line" smooth="yes"/>
      <point x="179" y="370"/>
      <point x="191" y="371"/>
      <point x="203" y="371" type="curve" smooth="yes"/>
      <point x="273" y="371" type="line"/>
      <point x="26" y="41" type="line"/>
      <point x="26" y="0" type="line"/>
      <point x="378" y="0" type="line"/>
      <point x="378" y="62" type="line"/>
      <point x="242" y="62" type="line" smooth="yes"/>
      <point x="230" y="62"/>
      <point x="218" y="61"/>
      <point x="206" y="61" type="curve" smooth="yes"/>
      <point x="129" y="61" type="line"/>
    </contour>
  </outline>
</glyph>
<glyph name="dieresis" format="2">
  <advance width="470"/>
  <unicode hex="00A8"/>
  <outline>
    <contour>
      <point x="184" y="658" type="line"/>
      <point x="103" y="658" type="line"/>
      <point x="103" y="577" type="line"/>
      <point x="184" y="577" type="line"/>
    </contour>
    <contour>
      <point x="366" y="658" type="line"/>
      <point x="285" y="658" type="line"/>
      <point x="285" y="577" type="line"/>
      <point x="366" y="577" type="line"/>
    </contour>
  </outline>
</glyph>
<glyph name="oslash" format="2">
  <advance width="470"/>
  <unicode hex="00F8"/>
  <outline>
    <contour>
      <point x="431" y="513" type="line"/>
      <point x="377" y="543" type="line"/>
      <point x="314" y="425" type="line"/>
      <point x="301" y="431"/>
      <point x="270" y="442"/>
      <point x="235" y="442" type="curve" smooth="yes"/>
      <point x="120" y="442"/>
      <point x="27" y="339"/>
      <point x="27" y="214" type="curve" smooth="yes"/>
      <point x="27" y="141"/>
      <point x="60" y="77"/>
      <point x="105" y="41" type="curve"/>
      <point x="38" y="-82" type="line"/>
      <point x="92" y="-112" type="line"/>
      <point x="157" y="8" type="line"/>
      <point x="173" y="1"/>
      <point x="201" y="-8"/>
      <point x="234" y="-8" type="curve" smooth="yes"/>
      <point x="348" y="-8"/>
      <point x="442" y="90"/>
      <point x="442" y="214" type="curve" smooth="yes"/>
      <point x="442" y="283"/>
      <point x="413" y="347"/>
      <point x="365" y="392" type="curve"/>
    </contour>
    <contour>
      <point x="137" y="101" type="line"/>
      <point x="107" y="139"/>
      <point x="103" y="185"/>
      <point x="103" y="214" type="curve" smooth="yes"/>
      <point x="103" y="328"/>
      <point x="168" y="381"/>
      <point x="235" y="381" type="curve" smooth="yes"/>
      <point x="252" y="381"/>
      <point x="269" y="378"/>
      <point x="284" y="371" type="curve"/>
    </contour>
    <contour>
      <point x="332" y="331" type="line"/>
      <point x="361" y="293"/>
      <point x="366" y="245"/>
      <point x="366" y="214" type="curve" smooth="yes"/>
      <point x="366" y="101"/>
      <point x="298" y="53"/>
      <point x="234" y="53" type="curve" smooth="yes"/>
      <point x="218" y="53"/>
      <point x="202" y="56"/>
      <point x="187" y="62" type="curve"/>
    </contour>
  </outline>
</glyph>
<glyph name="oe" format="2">
  <advance width="731"/>
  <unicode hex="0153"/>
  <outline>
    <contour>
      <point x="704" y="219" type="line"/>
      <point x="704" y="252"/>
      <point x="704" y="442"/>
      <point x="545" y="442" type="curve" smooth="yes"/>
      <point x="501" y="442"/>
      <point x="436" y="422"/>
      <point x="390" y="350" type="curve"/>
      <point x="345" y="417"/>
      <point x="281" y="442"/>
      <point x="227" y="442" type="curve" smooth="yes"/>
      <point x="120" y="442"/>
      <point x="27" y="344"/>
      <point x="27" y="217" type="curve" smooth="yes"/>
      <point x="27" y="89"/>
      <point x="121" y="-8"/>
      <point x="227" y="-8" type="curve" smooth="yes"/>
      <point x="272" y="-8"/>
      <point x="341" y="10"/>
      <point x="391" y="86" type="curve"/>
      <point x="443" y="12"/>
      <point x="507" y="-8"/>
      <point x="560" y="-8" type="curve" smooth="yes"/>
      <point x="606" y="-8"/>
      <point x="656" y="7"/>
      <point x="699" y="41" type="curve"/>
      <point x="699" y="45"/>
      <point x="696" y="76"/>
      <point x="696" y="78" type="curve"/>
      <point x="695" y="79"/>
      <point x="693" y="101"/>
      <point x="693" y="105" type="curve"/>
      <point x="648" y="65"/>
      <point x="597" y="53"/>
      <point x="561" y="53" type="curve" smooth="yes"/>
      <point x="490" y="53"/>
      <point x="430" y="120"/>
      <point x="429" y="219" type="curve"/>
    </contour>
    <contour>
      <point x="436" y="274" type="line"/>
      <point x="454" y="342"/>
      <point x="501" y="381"/>
      <point x="545" y="381" type="curve" smooth="yes"/>
      <point x="583" y="381"/>
      <point x="626" y="354"/>
      <point x="637" y="274" type="curve"/>
    </contour>
    <contour>
      <point x="227" y="53" type="curve" smooth="yes"/>
      <point x="166" y="53"/>
      <point x="100" y="104"/>
      <point x="100" y="223" type="curve" smooth="yes"/>
      <point x="100" y="335"/>
      <point x="167" y="381"/>
      <point x="227" y="381" type="curve" smooth="yes"/>
      <point x="289" y="381"/>
      <point x="353" y="334"/>
      <point x="353" y="223" type="curve" smooth="yes"/>
      <point x="353" y="103"/>
      <point x="288" y="53"/>
    </contour>
  </outline>
</glyph>
<glyph name="tilde" format="2">
  <advance width="470"/>
  <unicode hex="02DC"/>
  <outline>
    <contour>
      <point x="330" y="655" type="line"/>
      <point x="330" y="631"/>
      <point x="324" y="599"/>
      <point x="296" y="599" type="curve" smooth="yes"/>
      <point x="281" y="599"/>
      <point x="263" y="607"/>
      <point x="243" y="622" type="curve" smooth="yes"/>
      <point x="216" y="641"/>
      <point x="197" y="655"/>
      <point x="170" y="655" type="curve" smooth="yes"/>
      <point x="129" y="655"/>
      <point x="80" y="617"/>
      <point x="78" y="538" type="curve"/>
      <point x="139" y="538" type="line"/>
      <point x="139" y="562"/>
      <point x="145" y="594"/>
      <point x="173" y="594" type="curve" smooth="yes"/>
      <point x="188" y="594"/>
      <point x="206" y="586"/>
      <point x="226" y="571" type="curve" smooth="yes"/>
      <point x="253" y="552"/>
      <point x="272" y="538"/>
      <point x="299" y="538" type="curve" smooth="yes"/>
      <point x="340" y="538"/>
      <point x="389" y="576"/>
      <point x="391" y="655" type="curve"/>
    </contour>
  </outline>
</glyph>
<glyph name="Gamma" format="2">
  <advance width="508"/>
  <unicode hex="0393"/>
  <outline>
    <contour>
      <point x="281" y="628" type="line" smooth="yes"/>
      <point x="293" y="628"/>
      <point x="305" y="627"/>
      <point x="317" y="627" type="curve" smooth="yes"/>
      <point x="469" y="627" type="line"/>
      <point x="469" y="692" type="line"/>
      <point x="88" y="692" type="line"/>
      <point x="88" y="0" type="line"/>
      <point x="172" y="0" type="line"/>
      <point x="172" y="628" type="line"/>
    </contour>
  </outline>
</glyph>
<glyph name="Theta" format="2">
  <advance width="731"/>
  <unicode hex="0398"/>
  <outline>
    <contour>
      <point x="678" y="346" type="curve" smooth="yes"/>
      <point x="678" y="551"/>
      <point x="534" y="710"/>
      <point x="365" y="710" type="curve" smooth="yes"/>
      <point x="196" y="710"/>
      <point x="52" y="551"/>
      <point x="52" y="346" type="curve" smooth="yes"/>
      <point x="52" y="138"/>
      <point x="199" y="-16"/>
      <point x="365" y="-16" type="curve" smooth="yes"/>
      <point x="532" y="-16"/>
      <point x="678" y="139"/>
    </contour>
    <contour>
      <point x="365" y="46" type="curve" smooth="yes"/>
      <point x="246" y="46"/>
      <point x="133" y="161"/>
      <point x="133" y="346" type="curve" smooth="yes"/>
      <point x="133" y="529"/>
      <point x="243" y="649"/>
      <point x="365" y="649" type="curve" smooth="yes"/>
      <point x="487" y="649"/>
      <point x="597" y="528"/>
      <point x="597" y="346" type="curve" smooth="yes"/>
      <point x="597" y="161"/>
      <point x="484" y="46"/>
    </contour>
    <contour>
      <point x="186" y="387" type="line"/>
      <point x="186" y="308" type="line"/>
      <point x="544" y="308" type="line"/>
      <point x="544" y="387" type="line"/>
    </contour>
  </outline>
</glyph>
<glyph name="Lambda" format="2">
  <advance width="572"/>
  <unicode hex="039B"/>
  <outline>
    <contour>
      <point x="328" y="694" type="line"/>
      <point x="243" y="694" type="line"/>
      <point x="26" y="0" type="line"/>
      <point x="101" y="0" type="line"/>
      <point x="198" y="317" type="line"/>
      <point x="244" y="475" type="line" smooth="yes"/>
      <point x="256" y="515"/>
      <point x="274" y="579"/>
      <point x="278" y="615" type="curve"/>
      <point x="279" y="616" type="line"/>
      <point x="285" y="564"/>
      <point x="345" y="362"/>
      <point x="366" y="295" type="curve" smooth="yes"/>
      <point x="457" y="0" type="line"/>
      <point x="545" y="0" type="line"/>
    </contour>
  </outline>
</glyph>
<glyph name="Xi" format="2">
  <advance width="626"/>
  <unicode hex="039E"/>
  <outline>
    <contour>
      <point x="161" y="620" type="line" smooth="yes"/>
      <point x="211" y="620"/>
      <point x="263" y="621"/>
      <point x="313" y="621" type="curve" smooth="yes"/>
      <point x="363" y="621"/>
      <point x="415" y="620"/>
      <point x="465" y="620" type="curve" smooth="yes"/>
      <point x="582" y="620" type="line"/>
      <point x="582" y="691" type="line"/>
      <point x="44" y="691" type="line"/>
      <point x="44" y="620" type="line"/>
    </contour>
    <contour>
      <point x="468" y="71" type="line" smooth="yes"/>
      <point x="417" y="71"/>
      <point x="364" y="70"/>
      <point x="313" y="70" type="curve" smooth="yes"/>
      <point x="262" y="70"/>
      <point x="209" y="71"/>
      <point x="158" y="71" type="curve" smooth="yes"/>
      <point x="39" y="71" type="line"/>
      <point x="39" y="0" type="line"/>
      <point x="587" y="0" type="line"/>
      <point x="587" y="71" type="line"/>
    </contour>
    <contour>
      <point x="104" y="394" type="line"/>
      <point x="104" y="324" type="line"/>
      <point x="522" y="324" type="line"/>
      <point x="522" y="394" type="line"/>
    </contour>
  </outline>
</glyph>
<glyph name="Pi" format="2">
  <advance width="663"/>
  <unicode hex="03A0"/>
  <outline>
    <contour>
      <point x="574" y="692" type="line"/>
      <point x="88" y="692" type="line"/>
      <point x="88" y="0" type="line"/>
      <point x="172" y="0" type="line"/>
      <point x="172" y="631" type="line"/>
      <point x="490" y="631" type="line"/>
      <point x="490" y="0" type="line"/>
      <point x="574" y="0" type="line"/>
    </contour>
  </outline>
</glyph>
<glyph name="Sigma" format="2">
  <advance width="679"/>
  <unicode hex="03A3"/>
  <outline>
    <contour>
      <point x="365" y="347" type="line"/>
      <point x="156" y="630" type="line"/>
      <point x="347" y="630" type="line" smooth="yes"/>
      <point x="359" y="630"/>
      <point x="371" y="629"/>
      <point x="383" y="629" type="curve" smooth="yes"/>
      <point x="626" y="629" type="line"/>
      <point x="626" y="694" type="line"/>
      <point x="52" y="694" type="line"/>
      <point x="52" y="630" type="line"/>
      <point x="268" y="337" type="line"/>
      <point x="52" y="0" type="line"/>
      <point x="626" y="0" type="line"/>
      <point x="626" y="69" type="line"/>
      <point x="401" y="69" type="line" smooth="yes"/>
      <point x="389" y="69"/>
      <point x="377" y="68"/>
      <point x="365" y="68" type="curve" smooth="yes"/>
      <point x="186" y="68" type="line"/>
    </contour>
  </outline>
</glyph>
<glyph name="Upsilon" format="2">
  <advance width="731"/>
  <unicode hex="03A5"/>
  <outline>
    <contour>
      <point x="407" y="397" type="line" smooth="yes"/>
      <point x="407" y="563"/>
      <point x="440" y="647"/>
      <point x="526" y="647" type="curve" smooth="yes"/>
      <point x="568" y="647"/>
      <point x="600" y="612"/>
      <point x="602" y="555" type="curve"/>
      <point x="678" y="555" type="line"/>
      <point x="675" y="656"/>
      <point x="599" y="710"/>
      <point x="527" y="710" type="curve" smooth="yes"/>
      <point x="419" y="710"/>
      <point x="381" y="607"/>
      <point x="366" y="504" type="curve"/>
      <point x="365" y="504" type="line"/>
      <point x="348" y="617"/>
      <point x="306" y="710"/>
      <point x="203" y="710" type="curve" smooth="yes"/>
      <point x="131" y="710"/>
      <point x="55" y="656"/>
      <point x="52" y="555" type="curve"/>
      <point x="128" y="555" type="line"/>
      <point x="130" y="611"/>
      <point x="162" y="647"/>
      <point x="204" y="647" type="curve" smooth="yes"/>
      <point x="291" y="647"/>
      <point x="323" y="560"/>
      <point x="323" y="397" type="curve" smooth="yes"/>
      <point x="323" y="0" type="line"/>
      <point x="407" y="0" type="line"/>
    </contour>
  </outline>
</glyph>
<glyph name="Phi" format="2">
  <advance width="679"/>
  <unicode hex="03A6"/>
  <outline>
    <contour>
      <point x="378" y="694" type="line"/>
      <point x="297" y="694" type="line"/>
      <point x="297" y="587" type="line"/>
      <point x="155" y="571"/>
      <point x="52" y="465"/>
      <point x="52" y="347" type="curve" smooth="yes"/>
      <point x="52" y="229"/>
      <point x="155" y="123"/>
      <point x="297" y="107" type="curve"/>
      <point x="297" y="0" type="line"/>
      <point x="378" y="0" type="line"/>
      <point x="378" y="106" type="line"/>
      <point x="530" y="125"/>
      <point x="626" y="233"/>
      <point x="626" y="347" type="curve" smooth="yes"/>
      <point x="626" y="461"/>
      <point x="530" y="569"/>
      <point x="378" y="588" type="curve"/>
    </contour>
    <contour>
      <point x="297" y="168" type="line"/>
      <point x="186" y="187"/>
      <point x="134" y="266"/>
      <point x="134" y="347" type="curve" smooth="yes"/>
      <point x="134" y="428"/>
      <point x="186" y="507"/>
      <point x="297" y="526" type="curve"/>
    </contour>
    <contour>
      <point x="378" y="526" type="line"/>
      <point x="498" y="508"/>
      <point x="544" y="422"/>
      <point x="544" y="347" type="curve" smooth="yes"/>
      <point x="544" y="272"/>
      <point x="497" y="186"/>
      <point x="378" y="168" type="curve"/>
    </contour>
  </outline>
</glyph>
<glyph name="Psi" format="2">
  <advance width="731"/>
  <unicode hex="03A8"/>
  <outline>
    <contour>
      <point x="404" y="694" type="line"/>
      <point x="323" y="694" type="line"/>
      <point x="323" y="171" type="line"/>
      <point x="203" y="206"/>
      <point x="197" y="352"/>
      <point x="197" y="419" type="curve" smooth="yes"/>
      <point x="197" y="576"/>
      <point x="181" y="613"/>
      <point x="122" y="613" type="curve" smooth="yes"/>
      <point x="52" y="613" type="line"/>
      <point x="52" y="552" type="line"/>
      <point x="108" y="549"/>
      <point x="116" y="488"/>
      <point x="116" y="408" type="curve" smooth="yes"/>
      <point x="117" y="266"/>
      <point x="169" y="131"/>
      <point x="323" y="107" type="curve"/>
      <point x="323" y="0" type="line"/>
      <point x="404" y="0" type="line"/>
      <point x="404" y="107" type="line"/>
      <point x="575" y="136"/>
      <point x="613" y="279"/>
      <point x="614" y="423" type="curve" smooth="yes"/>
      <point x="614" y="516"/>
      <point x="636" y="550"/>
      <point x="678" y="552" type="curve"/>
      <point x="678" y="613" type="line"/>
      <point x="608" y="613" type="line" smooth="yes"/>
      <point x="586" y="613"/>
      <point x="560" y="613"/>
      <point x="545" y="565" type="curve" smooth="yes"/>
      <point x="533" y="526"/>
      <point x="533" y="471"/>
      <point x="533" y="417" type="curve" smooth="yes"/>
      <point x="533" y="334"/>
      <point x="519" y="203"/>
      <point x="404" y="171" type="curve"/>
    </contour>
  </outline>
</glyph>
<glyph name="endash" format="2">
  <advance width="470"/>
  <unicode hex="2013"/>
  <outline>
    <contour>
      <point x="469" y="235" type="line"/>
      <point x="469" y="296" type="line"/>
      <point x="0" y="296" type="line"/>
      <point x="0" y="235" type="line"/>
    </contour>
  </outline>
</glyph>
<glyph name="quoteleft" format="2">
  <advance width="261"/>
  <unicode hex="2018"/>
  <outline>
    <contour>
      <point x="171" y="694" type="line"/>
      <point x="131" y="694" type="line"/>
      <point x="90" y="568" type="line"/>
      <point x="90" y="489" type="line"/>
      <point x="170" y="489" type="line"/>
      <point x="170" y="569" type="line"/>
      <point x="145" y="569" type="line"/>
    </contour>
  </outline>
</glyph>
<glyph name="quoteright" format="2">
  <advance width="261"/>
  <unicode hex="2019"/>
  <outline>
    <contour>
      <point x="170" y="615" type="line"/>
      <point x="170" y="694" type="line"/>
      <point x="90" y="694" type="line"/>
      <point x="90" y="614" type="line"/>
      <point x="115" y="614" type="line"/>
      <point x="89" y="489" type="line"/>
      <point x="129" y="489" type="line"/>
    </contour>
  </outline>
</glyph>
<glyph name="quotedblright" format="2">
  <advance width="470"/>
  <unicode hex="201D"/>
  <outline>
    <contour>
      <point x="111" y="615" type="line"/>
      <point x="111" y="694" type="line"/>
      <point x="31" y="694" type="line"/>
      <point x="31" y="614" type="line"/>
      <point x="56" y="614" type="line"/>
      <point x="30" y="489" type="line"/>
      <point x="70" y="489" type="line"/>
    </contour>
    <contour>
      <point x="294" y="615" type="line"/>
      <point x="294" y="694" type="line"/>
      <point x="214" y="694" type="line"/>
      <point x="214" y="614" type="line"/>
      <point x="239" y="614" type="line"/>
      <point x="213" y="489" type="line"/>
      <point x="253" y="489" type="line"/>
    </contour>
  </outline>
</glyph>
<glyph name="Omega" format="2">
  <advance width="679"/>
  <unicode hex="2126"/>
  <outline>
    <contour>
      <point x="636" y="68" type="line"/>
      <point x="558" y="68" type="line" smooth="yes"/>
      <point x="546" y="68"/>
      <point x="534" y="67"/>
      <point x="522" y="67" type="curve" smooth="yes"/>
      <point x="474" y="67" type="line"/>
      <point x="488" y="124"/>
      <point x="519" y="183"/>
      <point x="554" y="246" type="curve" smooth="yes"/>
      <point x="591" y="314"/>
      <point x="626" y="386"/>
      <point x="626" y="461" type="curve" smooth="yes"/>
      <point x="626" y="599"/>
      <point x="498" y="710"/>
      <point x="339" y="710" type="curve" smooth="yes"/>
      <point x="179" y="710"/>
      <point x="52" y="599"/>
      <point x="52" y="461" type="curve" smooth="yes"/>
      <point x="52" y="388"/>
      <point x="85" y="319"/>
      <point x="123" y="248" type="curve" smooth="yes"/>
      <point x="159" y="181"/>
      <point x="191" y="124"/>
      <point x="204" y="67" type="curve"/>
      <point x="156" y="67" type="line" smooth="yes"/>
      <point x="144" y="67"/>
      <point x="132" y="68"/>
      <point x="120" y="68" type="curve" smooth="yes"/>
      <point x="42" y="68" type="line"/>
      <point x="42" y="0" type="line"/>
      <point x="273" y="0" type="line"/>
      <point x="272" y="80"/>
      <point x="246" y="141"/>
      <point x="198" y="245" type="curve" smooth="yes"/>
      <point x="160" y="327"/>
      <point x="136" y="394"/>
      <point x="136" y="460" type="curve" smooth="yes"/>
      <point x="136" y="574"/>
      <point x="229" y="649"/>
      <point x="339" y="649" type="curve" smooth="yes"/>
      <point x="450" y="649"/>
      <point x="542" y="574"/>
      <point x="542" y="460" type="curve" smooth="yes"/>
      <point x="542" y="382"/>
      <point x="508" y="305"/>
      <point x="477" y="238" type="curve" smooth="yes"/>
      <point x="433" y="143"/>
      <point x="406" y="81"/>
      <point x="405" y="0" type="curve"/>
      <point x="636" y="0" type="line"/>
    </contour>
  </outline>
</glyph>
<glyph name="Delta" format="2">
  <advance width="783"/>
  <unicode hex="2206"/>
  <outline>
    <contour>
      <point x="436" y="694" type="line"/>
      <point x="347" y="694" type="line"/>
      <point x="39" y="0" type="line"/>
      <point x="744" y="0" type="line"/>
    </contour>
    <contour>
      <point x="300" y="414" type="line" smooth="yes"/>
      <point x="329" y="481"/>
      <point x="370" y="572"/>
      <point x="384" y="620" type="curve"/>
      <point x="400" y="569"/>
      <point x="441" y="477"/>
      <point x="472" y="407" type="curve" smooth="yes"/>
      <point x="617" y="79" type="line"/>
      <point x="152" y="79" type="line"/>
    </contour>
  </outline>
</glyph>
<glyph name="suppress" format="2">
  <advance width="222"/>
  <outline>
    <contour>
      <point x="231" y="331" type="line"/>
      <point x="214" y="386" type="line"/>
      <point x="-9" y="318" type="line"/>
      <point x="8" y="262" type="line"/>
    </contour>
  </outline>
</glyph>
